<svg width="1400" height="820" viewBox="0 0 1400 820" xmlns="http://www.w3.org/2000/svg">
  <defs>
    <style>
      @import url('https://fonts.googleapis.com/css2?family=Syne:wght@600;700;800&amp;family=DM+Sans:opsz,wght@9..40,300;9..40,400;9..40,500;9..40,600&amp;display=swap');
    </style>

    <!-- Arc gradients -->
    <linearGradient id="arcGrad2" x1="0%" y1="0%" x2="100%" y2="0%">
      <stop offset="0%" stop-color="#00d9a6"/>
      <stop offset="100%" stop-color="#4facfe"/>
    </linearGradient>
    <linearGradient id="dotGrad" x1="0%" y1="0%" x2="100%" y2="100%">
      <stop offset="0%" stop-color="#00d9a6"/>
      <stop offset="100%" stop-color="#00b48a"/>
    </linearGradient>
    <linearGradient id="bgGrad" x1="0%" y1="0%" x2="100%" y2="100%">
      <stop offset="0%" stop-color="#060c18"/>
      <stop offset="100%" stop-color="#091220"/>
    </linearGradient>
    <linearGradient id="rightBg" x1="0%" y1="0%" x2="100%" y2="0%">
      <stop offset="0%" stop-color="#0c1929"/>
      <stop offset="100%" stop-color="#0e1e30"/>
    </linearGradient>
    <linearGradient id="lightBg" x1="0%" y1="0%" x2="100%" y2="100%">
      <stop offset="0%" stop-color="#f0f4f8"/>
      <stop offset="100%" stop-color="#e4ecf4"/>
    </linearGradient>
    <linearGradient id="arcGradDark" x1="0%" y1="0%" x2="100%" y2="0%">
      <stop offset="0%" stop-color="#009e7a"/>
      <stop offset="100%" stop-color="#2f7fbf"/>
    </linearGradient>

    <!-- Glow / bloom -->
    <filter id="glow" x="-30%" y="-30%" width="160%" height="160%">
      <feGaussianBlur stdDeviation="4" result="blur"/>
      <feMerge><feMergeNode in="blur"/><feMergeNode in="SourceGraphic"/></feMerge>
    </filter>
    <filter id="glow-soft" x="-50%" y="-50%" width="200%" height="200%">
      <feGaussianBlur stdDeviation="18" result="blur"/>
      <feMerge><feMergeNode in="blur"/><feMergeNode in="SourceGraphic"/></feMerge>
    </filter>
    <filter id="glow-sm" x="-20%" y="-20%" width="140%" height="140%">
      <feGaussianBlur stdDeviation="2" result="blur"/>
      <feMerge><feMergeNode in="blur"/><feMergeNode in="SourceGraphic"/></feMerge>
    </filter>
    <filter id="shadow">
      <feDropShadow dx="0" dy="4" stdDeviation="12" flood-color="#000" flood-opacity="0.4"/>
    </filter>

    <!-- Dot grid pattern -->
    <pattern id="dots" x="0" y="0" width="28" height="28" patternUnits="userSpaceOnUse">
      <circle cx="14" cy="14" r="1" fill="rgba(255,255,255,0.04)"/>
    </pattern>

    <!-- Clip paths -->
    <clipPath id="leftClip">
      <rect x="0" y="0" width="940" height="820"/>
    </clipPath>
    <clipPath id="rightClip">
      <rect x="940" y="0" width="460" height="820"/>
    </clipPath>
    <clipPath id="lightCard">
      <rect x="60" y="590" width="380" height="170" rx="12"/>
    </clipPath>
  </defs>

  <!-- ══════════════════════════════════════════════════ -->
  <!-- BACKGROUNDS                                        -->
  <!-- ══════════════════════════════════════════════════ -->
  <rect width="1400" height="820" fill="url(#bgGrad)"/>
  <rect width="1400" height="820" fill="url(#dots)"/>
  <rect x="940" y="0" width="460" height="820" fill="url(#rightBg)" opacity="0.9"/>

  <!-- Vertical divider -->
  <line x1="940" y1="0" x2="940" y2="820" stroke="rgba(255,255,255,0.07)" stroke-width="1"/>

  <!-- Ambient glow behind main logo mark -->
  <ellipse cx="300" cy="400" rx="140" ry="100" fill="#00d9a6" opacity="0.04" filter="url(#glow-soft)"/>

  <!-- ══════════════════════════════════════════════════ -->
  <!-- LEFT PANEL — PRIMARY LOGO                          -->
  <!-- ══════════════════════════════════════════════════ -->

  <!-- Section label -->
  <text x="60" y="58"
        font-family="'DM Sans', Arial, sans-serif"
        font-size="10" font-weight="500" fill="rgba(255,255,255,0.25)"
        letter-spacing="3">PRIMARY MARK · DARK BACKGROUND</text>
  <line x1="60" y1="66" x2="380" y2="66" stroke="rgba(255,255,255,0.08)" stroke-width="1"/>

  <!-- ── SIGNAL ICON MARK (center: 300, 400) ── -->

  <!-- Bloom behind arcs -->
  <ellipse cx="300" cy="390" rx="90" ry="70" fill="#00d9a6" opacity="0.025"/>

  <!-- Arc 3 — outermost, blue, furthest reach (non-healthcare businesses) -->
  <!-- r=94, start=(227.99, 349.58), end=(372.01, 349.58) -->
  <path d="M 227.99,349.58 A 94,94 0 0,1 372.01,349.58"
        fill="none" stroke="#4facfe" stroke-width="5.5" stroke-linecap="round"
        opacity="0.65" filter="url(#glow)"/>

  <!-- Arc 2 — middle, teal-to-blue gradient (broad healthcare) -->
  <!-- r=65, start=(250.21, 368.22), end=(349.79, 368.22) -->
  <path d="M 250.21,368.22 A 65,65 0 0,1 349.79,368.22"
        fill="none" stroke="url(#arcGrad2)" stroke-width="5.5" stroke-linecap="round"
        filter="url(#glow)"/>

  <!-- Arc 1 — innermost, teal, medical clinic core -->
  <!-- r=38, start=(270.89, 385.57), end=(329.11, 385.57) -->
  <path d="M 270.89,385.57 A 38,38 0 0,1 329.11,385.57"
        fill="none" stroke="#00d9a6" stroke-width="5.5" stroke-linecap="round"
        filter="url(#glow)"/>

  <!-- EKG pulse line — easter egg healthcare signature, runs through arcs -->
  <!-- Very subtle, thin, white at low opacity -->
  <path d="M 220,390 L 268,390 L 274,390 L 278,376 L 283,406 L 287,372 L 292,390 L 380,390"
        fill="none" stroke="white" stroke-width="1.2" stroke-linecap="round" stroke-linejoin="round"
        opacity="0.18"/>

  <!-- Source dot — the origin / broadcast point -->
  <circle cx="300" cy="410" r="11" fill="url(#dotGrad)" filter="url(#glow)"/>
  <!-- Medical cross inside dot -->
  <rect x="297.5" y="404" width="5" height="12" rx="1.5" fill="white" opacity="0.95"/>
  <rect x="294" y="407.5" width="12" height="5" rx="1.5" fill="white" opacity="0.95"/>

  <!-- ── WORDMARK ── -->
  <text x="418" y="402"
        font-family="'Syne', 'Arial Black', Impact, sans-serif"
        font-weight="800" font-size="68" fill="white" letter-spacing="-1.5">Stickercast</text>

  <!-- Accent underline on "cast" -->
  <rect x="636" y="409" width="200" height="3" rx="1.5" fill="url(#arcGrad2)" opacity="0.7"/>

  <!-- Tagline -->
  <text x="420" y="445"
        font-family="'DM Sans', Arial, sans-serif"
        font-weight="400" font-size="14" fill="rgba(255,255,255,0.38)"
        letter-spacing="5">AI · SIGNAL · HEALTH</text>

  <!-- ══════════════════════════════════════════════════ -->
  <!-- LIGHT BACKGROUND VERSION (bottom-left)            -->
  <!-- ══════════════════════════════════════════════════ -->

  <!-- Section label -->
  <text x="60" y="534"
        font-family="'DM Sans', Arial, sans-serif"
        font-size="10" font-weight="500" fill="rgba(255,255,255,0.25)"
        letter-spacing="3">LIGHT BACKGROUND</text>
  <line x1="60" y1="542" x2="380" y2="542" stroke="rgba(255,255,255,0.08)" stroke-width="1"/>

  <!-- Light card -->
  <rect x="60" y="558" width="400" height="180" rx="14" fill="url(#lightBg)" filter="url(#shadow)"/>

  <!-- Icon on light (scaled 0.62x, source at 178, 700) -->
  <!-- Arc 3: r=58.3, scaled from 94 -->
  <path d="M 133.3,672.1 A 58.3,58.3 0 0,1 222.7,672.1"
        fill="none" stroke="#2f7fbf" stroke-width="3.5" stroke-linecap="round" opacity="0.7"/>
  <!-- Arc 2: r=40.3 -->
  <path d="M 148.6,682.5 A 40.3,40.3 0 0,1 207.4,682.5"
        fill="none" stroke="url(#arcGradDark)" stroke-width="3.5" stroke-linecap="round"/>
  <!-- Arc 1: r=23.6 -->
  <path d="M 161.3,691.5 A 23.6,23.6 0 0,1 194.7,691.5"
        fill="none" stroke="#009e7a" stroke-width="3.5" stroke-linecap="round"/>
  <!-- EKG light -->
  <path d="M 130,686 L 158,686 L 162,679 L 166,694 L 169,677 L 173,686 L 226,686"
        fill="none" stroke="#005a40" stroke-width="0.8" stroke-linecap="round" stroke-linejoin="round"
        opacity="0.2"/>
  <!-- Dot -->
  <circle cx="178" cy="703" r="7" fill="#009e7a"/>
  <rect x="175.5" y="699" width="5" height="12" rx="1" fill="white" opacity="0.9"/>
  <rect x="172" y="702.5" width="12" height="5" rx="1" fill="white" opacity="0.9"/>

  <!-- Wordmark light -->
  <text x="250" y="690"
        font-family="'Syne', 'Arial Black', Impact, sans-serif"
        font-weight="800" font-size="32" fill="#0a1628" letter-spacing="-0.5">Stickercast</text>
  <text x="252" y="710"
        font-family="'DM Sans', Arial, sans-serif"
        font-weight="400" font-size="11" fill="#4a6a8a"
        letter-spacing="3">AI · SIGNAL · HEALTH</text>

  <!-- ══════════════════════════════════════════════════ -->
  <!-- ICON ONLY — LARGE (bottom center of left panel)   -->
  <!-- ══════════════════════════════════════════════════ -->

  <text x="510" y="534"
        font-family="'DM Sans', Arial, sans-serif"
        font-size="10" font-weight="500" fill="rgba(255,255,255,0.25)"
        letter-spacing="3">ICON MARK</text>
  <line x1="510" y1="542" x2="730" y2="542" stroke="rgba(255,255,255,0.08)" stroke-width="1"/>

  <!-- Large icon standalone on dark (source at 620, 710) -->
  <!-- r=80 arc 3 -->
  <path d="M 548.8,658.7 A 80,80 0 0,1 691.2,658.7"
        fill="none" stroke="#4facfe" stroke-width="5" stroke-linecap="round" opacity="0.65" filter="url(#glow-sm)"/>
  <!-- r=55 arc 2 -->
  <path d="M 572.8,675.6 A 55,55 0 0,1 667.2,675.6"
        fill="none" stroke="url(#arcGrad2)" stroke-width="5" stroke-linecap="round" filter="url(#glow-sm)"/>
  <!-- r=32 arc 1 -->
  <path d="M 595.5,689.3 A 32,32 0 0,1 644.5,689.3"
        fill="none" stroke="#00d9a6" stroke-width="5" stroke-linecap="round" filter="url(#glow-sm)"/>
  <!-- EKG -->
  <path d="M 545,682 L 587,682 L 592,671 L 597,694 L 601,669 L 606,682 L 695,682"
        fill="none" stroke="white" stroke-width="1" stroke-linecap="round" stroke-linejoin="round"
        opacity="0.16"/>
  <!-- Dot -->
  <circle cx="620" cy="710" r="9" fill="url(#dotGrad)" filter="url(#glow-sm)"/>
  <rect x="617.5" y="704" width="5" height="12" rx="1.5" fill="white" opacity="0.95"/>
  <rect x="614" y="707.5" width="12" height="5" rx="1.5" fill="white" opacity="0.95"/>

  <!-- ══════════════════════════════════════════════════ -->
  <!-- RIGHT PANEL                                        -->
  <!-- ══════════════════════════════════════════════════ -->

  <text x="970" y="58"
        font-family="'DM Sans', Arial, sans-serif"
        font-size="10" font-weight="500" fill="rgba(255,255,255,0.25)"
        letter-spacing="3">USAGE · SIZES · PALETTE</text>
  <line x1="970" y1="66" x2="1350" y2="66" stroke="rgba(255,255,255,0.08)" stroke-width="1"/>

  <!-- ── Small sizes row ── -->
  <text x="970" y="108"
        font-family="'DM Sans', Arial, sans-serif"
        font-size="9" font-weight="500" fill="rgba(255,255,255,0.2)"
        letter-spacing="2.5">SCALE TESTS</text>

  <!-- 48px icon (source at 1010, 175) -->
  <path d="M 981.3,154.7 A 34,34 0 0,1 1038.7,154.7"
        fill="none" stroke="#4facfe" stroke-width="2.5" stroke-linecap="round" opacity="0.65"/>
  <path d="M 988.8,163.0 A 25,25 0 0,1 1031.2,163.0"
        fill="none" stroke="url(#arcGrad2)" stroke-width="2.5" stroke-linecap="round"/>
  <path d="M 995.8,169.8 A 16,16 0 0,1 1024.2,169.8"
        fill="none" stroke="#00d9a6" stroke-width="2.5" stroke-linecap="round"/>
  <circle cx="1010" cy="181" r="4.5" fill="url(#dotGrad)"/>
  <rect x="1008.2" y="177.5" width="3.6" height="7" rx="1" fill="white" opacity="0.9"/>
  <rect x="1006.5" y="179.2" width="7" height="3.6" rx="1" fill="white" opacity="0.9"/>
  <text x="990" y="202" font-family="'DM Sans', Arial, sans-serif" font-size="9"
        fill="rgba(255,255,255,0.25)" letter-spacing="1" text-anchor="middle">48px</text>

  <!-- 32px icon (source at 1090, 175) -->
  <path d="M 1067.5,158 A 24,24 0 0,1 1112.5,158"
        fill="none" stroke="#4facfe" stroke-width="2" stroke-linecap="round" opacity="0.65"/>
  <path d="M 1073.5,164.5 A 17,17 0 0,1 1106.5,164.5"
        fill="none" stroke="url(#arcGrad2)" stroke-width="2" stroke-linecap="round"/>
  <path d="M 1079.2,169.9 A 11,11 0 0,1 1100.8,169.9"
        fill="none" stroke="#00d9a6" stroke-width="2" stroke-linecap="round"/>
  <circle cx="1090" cy="178" r="3.5" fill="url(#dotGrad)"/>
  <rect x="1088.5" y="175" width="3" height="6" rx="0.8" fill="white" opacity="0.9"/>
  <rect x="1087" y="176.5" width="6" height="3" rx="0.8" fill="white" opacity="0.9"/>
  <text x="1090" y="202" font-family="'DM Sans', Arial, sans-serif" font-size="9"
        fill="rgba(255,255,255,0.25)" letter-spacing="1" text-anchor="middle">32px</text>

  <!-- 16px icon (source at 1160, 175) -->
  <path d="M 1144.8,163 A 17,17 0 0,1 1175.2,163"
        fill="none" stroke="#4facfe" stroke-width="1.5" stroke-linecap="round" opacity="0.65"/>
  <path d="M 1149.3,167.8 A 12,12 0 0,1 1170.7,167.8"
        fill="none" stroke="url(#arcGrad2)" stroke-width="1.5" stroke-linecap="round"/>
  <path d="M 1153.6,171.7 A 7.5,7.5 0 0,1 1166.4,171.7"
        fill="none" stroke="#00d9a6" stroke-width="1.5" stroke-linecap="round"/>
  <circle cx="1160" cy="178" r="2.5" fill="url(#dotGrad)"/>
  <text x="1160" y="202" font-family="'DM Sans', Arial, sans-serif" font-size="9"
        fill="rgba(255,255,255,0.25)" letter-spacing="1" text-anchor="middle">16px</text>

  <!-- Divider -->
  <line x1="970" y1="222" x2="1360" y2="222" stroke="rgba(255,255,255,0.05)" stroke-width="1"/>

  <!-- ── Logo lockup on right panel ── -->
  <text x="970" y="258"
        font-family="'DM Sans', Arial, sans-serif"
        font-size="9" font-weight="500" fill="rgba(255,255,255,0.2)"
        letter-spacing="2.5">HORIZONTAL LOCKUP</text>

  <!-- Inline logo small (source at 1010, 310) -->
  <path d="M 989.4,291.4 A 22,22 0 0,1 1030.6,291.4"
        fill="none" stroke="#4facfe" stroke-width="2" stroke-linecap="round" opacity="0.65" filter="url(#glow-sm)"/>
  <path d="M 994.7,296.8 A 16.5,16.5 0 0,1 1025.3,296.8"
        fill="none" stroke="url(#arcGrad2)" stroke-width="2" stroke-linecap="round" filter="url(#glow-sm)"/>
  <path d="M 999.6,301.1 A 11,11 0 0,1 1020.4,301.1"
        fill="none" stroke="#00d9a6" stroke-width="2" stroke-linecap="round" filter="url(#glow-sm)"/>
  <circle cx="1010" cy="310" r="3.5" fill="url(#dotGrad)"/>
  <rect x="1008.5" y="306.5" width="3" height="7" rx="0.8" fill="white" opacity="0.9"/>
  <rect x="1007" y="308" width="6" height="3" rx="0.8" fill="white" opacity="0.9"/>

  <text x="1048" y="308"
        font-family="'Syne', 'Arial Black', sans-serif"
        font-weight="700" font-size="22" fill="white" letter-spacing="-0.5">Stickercast</text>
  <text x="1050" y="323"
        font-family="'DM Sans', Arial, sans-serif"
        font-weight="400" font-size="9.5" fill="rgba(255,255,255,0.35)"
        letter-spacing="2.8">AI · SIGNAL · HEALTH</text>

  <!-- Divider -->
  <line x1="970" y1="350" x2="1360" y2="350" stroke="rgba(255,255,255,0.05)" stroke-width="1"/>

  <!-- ── Brand story ── -->
  <text x="970" y="386"
        font-family="'DM Sans', Arial, sans-serif"
        font-size="9" font-weight="500" fill="rgba(255,255,255,0.2)"
        letter-spacing="2.5">BRAND MEANING</text>

  <!-- The three arcs explained -->
  <!-- Arc story card -->
  <rect x="970" y="400" width="380" height="130" rx="10"
        fill="rgba(255,255,255,0.025)" stroke="rgba(255,255,255,0.06)" stroke-width="1"/>

  <!-- Mini icon for story (source at 1020, 468) -->
  <path d="M 994.7,446.6 A 28,28 0 0,1 1045.3,446.6"
        fill="none" stroke="#4facfe" stroke-width="3" stroke-linecap="round" opacity="0.6"/>
  <path d="M 999.9,454.5 A 21,21 0 0,1 1040.1,454.5"
        fill="none" stroke="url(#arcGrad2)" stroke-width="3" stroke-linecap="round"/>
  <path d="M 1005.1,460.6 A 14,14 0 0,1 1034.9,460.6"
        fill="none" stroke="#00d9a6" stroke-width="3" stroke-linecap="round"/>
  <circle cx="1020" cy="470" r="4.5" fill="url(#dotGrad)"/>
  <rect x="1018" y="466" width="4" height="8" rx="1" fill="white" opacity="0.9"/>
  <rect x="1016" y="468" width="8" height="4" rx="1" fill="white" opacity="0.9"/>

  <!-- Labels with arrows -->
  <line x1="1000" y1="447" x2="1070" y2="420" stroke="rgba(79,172,254,0.3)" stroke-width="1" stroke-dasharray="3,2"/>
  <text x="1075" y="416"
        font-family="'DM Sans', Arial, sans-serif"
        font-size="10" fill="#4facfe" opacity="0.8">All healthcare + beyond</text>

  <line x1="1020" y1="455" x2="1070" y2="445" stroke="rgba(0,217,166,0.3)" stroke-width="1" stroke-dasharray="3,2"/>
  <text x="1075" y="441"
        font-family="'DM Sans', Arial, sans-serif"
        font-size="10" fill="#00d9a6" opacity="0.8">Broader healthcare</text>

  <line x1="1020" y1="462" x2="1070" y2="470" stroke="rgba(0,217,166,0.4)" stroke-width="1" stroke-dasharray="3,2"/>
  <text x="1075" y="466"
        font-family="'DM Sans', Arial, sans-serif"
        font-size="10" fill="#00d9a6">Medical clinics · origin</text>

  <line x1="1020" y1="471" x2="1070" y2="494" stroke="rgba(0,185,140,0.3)" stroke-width="1" stroke-dasharray="3,2"/>
  <text x="1075" y="490"
        font-family="'DM Sans', Arial, sans-serif"
        font-size="10" fill="rgba(255,255,255,0.4)">+ EKG · healthcare DNA</text>

  <!-- Divider -->
  <line x1="970" y1="548" x2="1360" y2="548" stroke="rgba(255,255,255,0.05)" stroke-width="1"/>

  <!-- ── Color Palette ── -->
  <text x="970" y="578"
        font-family="'DM Sans', Arial, sans-serif"
        font-size="9" font-weight="500" fill="rgba(255,255,255,0.2)"
        letter-spacing="2.5">COLOUR PALETTE</text>

  <!-- Swatch 1: Teal -->
  <rect x="970" y="594" width="80" height="60" rx="8" fill="#00d9a6"/>
  <text x="980" y="670" font-family="'DM Sans', Arial, sans-serif" font-size="9.5"
        fill="rgba(255,255,255,0.5)">#00D9A6</text>
  <text x="980" y="682" font-family="'DM Sans', Arial, sans-serif" font-size="9"
        fill="rgba(255,255,255,0.25)">Clinic Core</text>

  <!-- Swatch 2: Blue -->
  <rect x="1062" y="594" width="80" height="60" rx="8" fill="#4facfe"/>
  <text x="1072" y="670" font-family="'DM Sans', Arial, sans-serif" font-size="9.5"
        fill="rgba(255,255,255,0.5)">#4FACFE</text>
  <text x="1072" y="682" font-family="'DM Sans', Arial, sans-serif" font-size="9"
        fill="rgba(255,255,255,0.25)">Reach</text>

  <!-- Swatch 3: Dark navy -->
  <rect x="1154" y="594" width="80" height="60" rx="8" fill="#060c18" stroke="rgba(255,255,255,0.1)" stroke-width="1"/>
  <text x="1164" y="670" font-family="'DM Sans', Arial, sans-serif" font-size="9.5"
        fill="rgba(255,255,255,0.5)">#060C18</text>
  <text x="1164" y="682" font-family="'DM Sans', Arial, sans-serif" font-size="9"
        fill="rgba(255,255,255,0.25)">Deep Navy</text>

  <!-- Swatch 4: Surface -->
  <rect x="1246" y="594" width="80" height="60" rx="8" fill="#0c1929" stroke="rgba(255,255,255,0.08)" stroke-width="1"/>
  <text x="1256" y="670" font-family="'DM Sans', Arial, sans-serif" font-size="9.5"
        fill="rgba(255,255,255,0.5)">#0C1929</text>
  <text x="1256" y="682" font-family="'DM Sans', Arial, sans-serif" font-size="9"
        fill="rgba(255,255,255,0.25)">Surface</text>

  <!-- Gradient swatch -->
  <defs>
    <linearGradient id="swatchGrad" x1="0%" y1="0%" x2="100%" y2="0%">
      <stop offset="0%" stop-color="#00d9a6"/>
      <stop offset="100%" stop-color="#4facfe"/>
    </linearGradient>
  </defs>
  <rect x="970" y="696" width="356" height="22" rx="5" fill="url(#swatchGrad)" opacity="0.85"/>
  <text x="970" y="732" font-family="'DM Sans', Arial, sans-serif" font-size="9"
        fill="rgba(255,255,255,0.2)" letter-spacing="1">PRIMARY GRADIENT · #00D9A6 → #4FACFE</text>

  <!-- ══════════════════════════════════════════════════ -->
  <!-- BOTTOM STRIP — TAGLINE & VERSION                   -->
  <!-- ══════════════════════════════════════════════════ -->
  <line x1="0" y1="780" x2="1400" y2="780" stroke="rgba(255,255,255,0.05)" stroke-width="1"/>
  <text x="60" y="802"
        font-family="'DM Sans', Arial, sans-serif"
        font-size="10" fill="rgba(255,255,255,0.15)"
        letter-spacing="2">STICKERCAST BRAND IDENTITY · V1.0 · 2026</text>
  <text x="1340" y="802"
        font-family="'DM Sans', Arial, sans-serif"
        font-size="10" fill="rgba(255,255,255,0.15)"
        text-anchor="end">From clinic to care, everywhere</text>

</svg>
